<mxfile host="www.draw.io" modified="2019-12-18T07:02:44.578Z" agent="Mozilla/5.0 (Windows NT 6.1; Win64; x64) AppleWebKit/537.36 (KHTML, like Gecko) Chrome/79.0.3945.88 Safari/537.36" etag="PtrVy1XZw7n-V9uS81qQ" version="12.4.3" type="github" pages="1">
  <diagram id="L1tXBJzJi5MXC7lRj_LI" name="第 1 页">
    <mxGraphModel dx="2013" dy="872" grid="0" gridSize="10" guides="1" tooltips="1" connect="1" arrows="1" fold="1" page="1" pageScale="1" pageWidth="1400" pageHeight="850" math="0" shadow="0">
      <root>
        <mxCell id="0"/>
        <mxCell id="1" parent="0"/>
        <mxCell id="EqqhAGQdl-XHteXpxpte-32" value="Loop" style="shape=umlFrame;whiteSpace=wrap;html=1;dashed=1;" vertex="1" parent="1">
          <mxGeometry x="49.67" y="318" width="786.33" height="442" as="geometry"/>
        </mxCell>
        <mxCell id="EqqhAGQdl-XHteXpxpte-2" style="edgeStyle=orthogonalEdgeStyle;orthogonalLoop=1;jettySize=auto;html=1;exitX=0.5;exitY=0;exitDx=0;exitDy=0;entryX=0.5;entryY=0;entryDx=0;entryDy=0;entryPerimeter=0;curved=1;" edge="1" parent="1" source="E789US4qsVM-YW00mA0m-1" target="EqqhAGQdl-XHteXpxpte-1">
          <mxGeometry relative="1" as="geometry"/>
        </mxCell>
        <mxCell id="E789US4qsVM-YW00mA0m-1" value="短信校验接口" style="rounded=0;whiteSpace=wrap;html=1;fillColor=#fff2cc;strokeColor=#d6b656;" parent="1" vertex="1">
          <mxGeometry x="509.67" y="20" width="120" height="60" as="geometry"/>
        </mxCell>
        <mxCell id="EqqhAGQdl-XHteXpxpte-13" style="edgeStyle=orthogonalEdgeStyle;curved=1;orthogonalLoop=1;jettySize=auto;html=1;exitX=1;exitY=0.5;exitDx=0;exitDy=0;entryX=0;entryY=0.5;entryDx=0;entryDy=0;" edge="1" parent="1" source="E789US4qsVM-YW00mA0m-2" target="EqqhAGQdl-XHteXpxpte-12">
          <mxGeometry relative="1" as="geometry"/>
        </mxCell>
        <mxCell id="E789US4qsVM-YW00mA0m-2" value="填写详细信息,&lt;br&gt;调用重疾险领取接口" style="rounded=0;whiteSpace=wrap;html=1;" parent="1" vertex="1">
          <mxGeometry x="109.67" y="140" width="120" height="60" as="geometry"/>
        </mxCell>
        <mxCell id="E789US4qsVM-YW00mA0m-3" value="投保接口" style="rounded=0;whiteSpace=wrap;html=1;fillColor=#fff2cc;strokeColor=#d6b656;" parent="1" vertex="1">
          <mxGeometry x="509.67" y="140" width="120" height="60" as="geometry"/>
        </mxCell>
        <mxCell id="E789US4qsVM-YW00mA0m-12" style="edgeStyle=orthogonalEdgeStyle;orthogonalLoop=1;jettySize=auto;html=1;exitX=1;exitY=1;exitDx=0;exitDy=0;entryX=0;entryY=0.5;entryDx=0;entryDy=0;curved=1;exitPerimeter=0;" parent="1" source="EqqhAGQdl-XHteXpxpte-1" target="E789US4qsVM-YW00mA0m-2" edge="1">
          <mxGeometry relative="1" as="geometry"/>
        </mxCell>
        <mxCell id="E789US4qsVM-YW00mA0m-4" value="调用保服获取验证码接口" style="rounded=0;whiteSpace=wrap;html=1;fillColor=#fff2cc;strokeColor=#d6b656;" parent="1" vertex="1">
          <mxGeometry x="309.67" y="20" width="120" height="60" as="geometry"/>
        </mxCell>
        <mxCell id="E789US4qsVM-YW00mA0m-8" style="edgeStyle=orthogonalEdgeStyle;orthogonalLoop=1;jettySize=auto;html=1;exitX=1;exitY=0.5;exitDx=0;exitDy=0;entryX=0;entryY=0.5;entryDx=0;entryDy=0;curved=1;" parent="1" source="E789US4qsVM-YW00mA0m-4" target="E789US4qsVM-YW00mA0m-1" edge="1">
          <mxGeometry relative="1" as="geometry"/>
        </mxCell>
        <mxCell id="EqqhAGQdl-XHteXpxpte-7" style="edgeStyle=orthogonalEdgeStyle;curved=1;orthogonalLoop=1;jettySize=auto;html=1;exitX=0.5;exitY=0.5;exitDx=0;exitDy=0;exitPerimeter=0;entryX=0;entryY=0.5;entryDx=0;entryDy=0;" edge="1" parent="1" source="EqqhAGQdl-XHteXpxpte-1" target="EqqhAGQdl-XHteXpxpte-8">
          <mxGeometry relative="1" as="geometry">
            <mxPoint x="-40.33" y="30" as="targetPoint"/>
          </mxGeometry>
        </mxCell>
        <mxCell id="EqqhAGQdl-XHteXpxpte-1" value="用户" style="shape=umlActor;verticalLabelPosition=bottom;labelBackgroundColor=#ffffff;verticalAlign=top;html=1;outlineConnect=0;" vertex="1" parent="1">
          <mxGeometry x="-0.3299999999999983" y="20" width="30" height="60" as="geometry"/>
        </mxCell>
        <mxCell id="EqqhAGQdl-XHteXpxpte-9" style="edgeStyle=orthogonalEdgeStyle;curved=1;orthogonalLoop=1;jettySize=auto;html=1;exitX=1;exitY=0.5;exitDx=0;exitDy=0;entryX=0;entryY=0.5;entryDx=0;entryDy=0;" edge="1" parent="1" source="EqqhAGQdl-XHteXpxpte-8" target="E789US4qsVM-YW00mA0m-4">
          <mxGeometry relative="1" as="geometry">
            <mxPoint x="229.67000000000002" y="30" as="targetPoint"/>
          </mxGeometry>
        </mxCell>
        <mxCell id="EqqhAGQdl-XHteXpxpte-8" value="获取验证码" style="rounded=0;whiteSpace=wrap;html=1;" vertex="1" parent="1">
          <mxGeometry x="109.67" y="20" width="120" height="60" as="geometry"/>
        </mxCell>
        <mxCell id="EqqhAGQdl-XHteXpxpte-15" style="edgeStyle=orthogonalEdgeStyle;curved=1;orthogonalLoop=1;jettySize=auto;html=1;exitX=1;exitY=0.5;exitDx=0;exitDy=0;entryX=0;entryY=0.5;entryDx=0;entryDy=0;" edge="1" parent="1" source="EqqhAGQdl-XHteXpxpte-12" target="E789US4qsVM-YW00mA0m-3">
          <mxGeometry relative="1" as="geometry"/>
        </mxCell>
        <mxCell id="EqqhAGQdl-XHteXpxpte-17" style="edgeStyle=orthogonalEdgeStyle;curved=1;orthogonalLoop=1;jettySize=auto;html=1;exitX=0.5;exitY=1;exitDx=0;exitDy=0;entryX=0.5;entryY=0;entryDx=0;entryDy=0;dashed=1;" edge="1" parent="1" source="EqqhAGQdl-XHteXpxpte-12" target="EqqhAGQdl-XHteXpxpte-16">
          <mxGeometry relative="1" as="geometry"/>
        </mxCell>
        <mxCell id="EqqhAGQdl-XHteXpxpte-12" value="转化为平安报文&lt;br&gt;进行投保" style="rounded=0;whiteSpace=wrap;html=1;fillColor=#fff2cc;strokeColor=#d6b656;" vertex="1" parent="1">
          <mxGeometry x="309.67" y="140" width="120" height="60" as="geometry"/>
        </mxCell>
        <mxCell id="EqqhAGQdl-XHteXpxpte-19" style="edgeStyle=orthogonalEdgeStyle;curved=1;orthogonalLoop=1;jettySize=auto;html=1;exitX=0.5;exitY=1;exitDx=0;exitDy=0;entryX=0.5;entryY=0;entryDx=0;entryDy=0;" edge="1" parent="1" source="EqqhAGQdl-XHteXpxpte-16" target="EqqhAGQdl-XHteXpxpte-20">
          <mxGeometry relative="1" as="geometry"/>
        </mxCell>
        <mxCell id="EqqhAGQdl-XHteXpxpte-16" value="发起定时任务,&lt;br&gt;定时获取平安保单" style="rounded=0;whiteSpace=wrap;html=1;fillColor=#d5e8d4;strokeColor=#82b366;" vertex="1" parent="1">
          <mxGeometry x="309.67" y="245" width="120" height="60" as="geometry"/>
        </mxCell>
        <mxCell id="EqqhAGQdl-XHteXpxpte-18" value="获取保单接口" style="rounded=0;whiteSpace=wrap;html=1;fillColor=#fff2cc;strokeColor=#d6b656;" vertex="1" parent="1">
          <mxGeometry x="509.67" y="350" width="120" height="60" as="geometry"/>
        </mxCell>
        <mxCell id="EqqhAGQdl-XHteXpxpte-23" style="edgeStyle=orthogonalEdgeStyle;curved=1;orthogonalLoop=1;jettySize=auto;html=1;exitX=1;exitY=0.5;exitDx=0;exitDy=0;entryX=0;entryY=0.5;entryDx=0;entryDy=0;" edge="1" parent="1" source="EqqhAGQdl-XHteXpxpte-20" target="EqqhAGQdl-XHteXpxpte-18">
          <mxGeometry relative="1" as="geometry"/>
        </mxCell>
        <mxCell id="EqqhAGQdl-XHteXpxpte-25" style="edgeStyle=orthogonalEdgeStyle;curved=1;orthogonalLoop=1;jettySize=auto;html=1;exitX=0.5;exitY=1;exitDx=0;exitDy=0;" edge="1" parent="1" source="EqqhAGQdl-XHteXpxpte-18" target="EqqhAGQdl-XHteXpxpte-24">
          <mxGeometry relative="1" as="geometry"/>
        </mxCell>
        <mxCell id="EqqhAGQdl-XHteXpxpte-20" value="保单预操作接口" style="rounded=0;whiteSpace=wrap;html=1;fillColor=#d5e8d4;strokeColor=#82b366;" vertex="1" parent="1">
          <mxGeometry x="309.67" y="350" width="120" height="60" as="geometry"/>
        </mxCell>
        <mxCell id="EqqhAGQdl-XHteXpxpte-29" value="下单/下单" style="edgeStyle=orthogonalEdgeStyle;curved=1;orthogonalLoop=1;jettySize=auto;html=1;exitX=0;exitY=0;exitDx=0;exitDy=0;" edge="1" parent="1" source="EqqhAGQdl-XHteXpxpte-24" target="EqqhAGQdl-XHteXpxpte-26">
          <mxGeometry relative="1" as="geometry"/>
        </mxCell>
        <mxCell id="EqqhAGQdl-XHteXpxpte-51" value="*/撤单" style="edgeStyle=orthogonalEdgeStyle;curved=1;orthogonalLoop=1;jettySize=auto;html=1;exitX=0.5;exitY=1;exitDx=0;exitDy=0;entryX=0.5;entryY=0;entryDx=0;entryDy=0;" edge="1" parent="1" source="EqqhAGQdl-XHteXpxpte-24" target="EqqhAGQdl-XHteXpxpte-35">
          <mxGeometry relative="1" as="geometry"/>
        </mxCell>
        <mxCell id="EqqhAGQdl-XHteXpxpte-53" value="撤单/下单" style="edgeStyle=orthogonalEdgeStyle;curved=1;orthogonalLoop=1;jettySize=auto;html=1;exitX=1;exitY=0.5;exitDx=0;exitDy=0;" edge="1" parent="1" source="EqqhAGQdl-XHteXpxpte-24" target="EqqhAGQdl-XHteXpxpte-55">
          <mxGeometry x="-0.2391" y="-40" relative="1" as="geometry">
            <mxPoint as="offset"/>
          </mxGeometry>
        </mxCell>
        <mxCell id="EqqhAGQdl-XHteXpxpte-57" value="撤单/出单" style="edgeStyle=orthogonalEdgeStyle;curved=1;orthogonalLoop=1;jettySize=auto;html=1;exitX=1;exitY=0;exitDx=0;exitDy=0;entryX=0.5;entryY=0;entryDx=0;entryDy=0;" edge="1" parent="1" source="EqqhAGQdl-XHteXpxpte-24" target="EqqhAGQdl-XHteXpxpte-39">
          <mxGeometry x="-0.0176" y="-20" relative="1" as="geometry">
            <mxPoint as="offset"/>
          </mxGeometry>
        </mxCell>
        <mxCell id="EqqhAGQdl-XHteXpxpte-24" value="查询到的订单状态&amp;amp;系统当前订单状态" style="rhombus;whiteSpace=wrap;html=1;" vertex="1" parent="1">
          <mxGeometry x="329.67" y="480" width="80" height="80" as="geometry"/>
        </mxCell>
        <mxCell id="EqqhAGQdl-XHteXpxpte-26" value="结束" style="rounded=0;whiteSpace=wrap;html=1;" vertex="1" parent="1">
          <mxGeometry x="79.67" y="360" width="120" height="60" as="geometry"/>
        </mxCell>
        <mxCell id="EqqhAGQdl-XHteXpxpte-34" value="^撤单/出单" style="edgeStyle=orthogonalEdgeStyle;curved=1;orthogonalLoop=1;jettySize=auto;html=1;exitX=0;exitY=0.5;exitDx=0;exitDy=0;entryX=0.5;entryY=0;entryDx=0;entryDy=0;" edge="1" parent="1" source="EqqhAGQdl-XHteXpxpte-24" target="EqqhAGQdl-XHteXpxpte-35">
          <mxGeometry x="-0.3348" y="60" relative="1" as="geometry">
            <mxPoint x="369.67" y="550" as="sourcePoint"/>
            <mxPoint x="369.67" y="720" as="targetPoint"/>
            <mxPoint as="offset"/>
          </mxGeometry>
        </mxCell>
        <mxCell id="EqqhAGQdl-XHteXpxpte-35" value="结束" style="rounded=0;whiteSpace=wrap;html=1;" vertex="1" parent="1">
          <mxGeometry x="79.67000000000002" y="780" width="120" height="60" as="geometry"/>
        </mxCell>
        <mxCell id="EqqhAGQdl-XHteXpxpte-38" value="出单/下单" style="edgeStyle=orthogonalEdgeStyle;curved=1;orthogonalLoop=1;jettySize=auto;html=1;exitX=1;exitY=1;exitDx=0;exitDy=0;entryX=0.5;entryY=0;entryDx=0;entryDy=0;" edge="1" parent="1" source="EqqhAGQdl-XHteXpxpte-24" target="EqqhAGQdl-XHteXpxpte-44">
          <mxGeometry relative="1" as="geometry">
            <mxPoint x="409.67" y="510" as="sourcePoint"/>
            <mxPoint x="589.67" y="530" as="targetPoint"/>
          </mxGeometry>
        </mxCell>
        <mxCell id="EqqhAGQdl-XHteXpxpte-47" style="edgeStyle=orthogonalEdgeStyle;curved=1;orthogonalLoop=1;jettySize=auto;html=1;exitX=0.5;exitY=1;exitDx=0;exitDy=0;entryX=1;entryY=0.5;entryDx=0;entryDy=0;" edge="1" parent="1" source="EqqhAGQdl-XHteXpxpte-39" target="EqqhAGQdl-XHteXpxpte-35">
          <mxGeometry relative="1" as="geometry"/>
        </mxCell>
        <mxCell id="EqqhAGQdl-XHteXpxpte-39" value="出单转撤单流程" style="rounded=0;whiteSpace=wrap;html=1;fillColor=#dae8fc;strokeColor=#6c8ebf;" vertex="1" parent="1">
          <mxGeometry x="680" y="680" width="120" height="60" as="geometry"/>
        </mxCell>
        <mxCell id="EqqhAGQdl-XHteXpxpte-54" style="edgeStyle=orthogonalEdgeStyle;curved=1;orthogonalLoop=1;jettySize=auto;html=1;exitX=0.5;exitY=1;exitDx=0;exitDy=0;entryX=1;entryY=0.5;entryDx=0;entryDy=0;" edge="1" parent="1" source="EqqhAGQdl-XHteXpxpte-44" target="EqqhAGQdl-XHteXpxpte-35">
          <mxGeometry relative="1" as="geometry"/>
        </mxCell>
        <mxCell id="EqqhAGQdl-XHteXpxpte-44" value="下单转出单" style="rounded=0;whiteSpace=wrap;html=1;fillColor=#dae8fc;strokeColor=#6c8ebf;" vertex="1" parent="1">
          <mxGeometry x="329.67" y="680" width="120" height="60" as="geometry"/>
        </mxCell>
        <mxCell id="EqqhAGQdl-XHteXpxpte-58" style="edgeStyle=orthogonalEdgeStyle;curved=1;orthogonalLoop=1;jettySize=auto;html=1;exitX=0.5;exitY=1;exitDx=0;exitDy=0;entryX=1;entryY=0.5;entryDx=0;entryDy=0;" edge="1" parent="1" source="EqqhAGQdl-XHteXpxpte-55" target="EqqhAGQdl-XHteXpxpte-35">
          <mxGeometry relative="1" as="geometry"/>
        </mxCell>
        <mxCell id="EqqhAGQdl-XHteXpxpte-55" value="下单转撤单" style="rounded=0;whiteSpace=wrap;html=1;fillColor=#dae8fc;strokeColor=#6c8ebf;" vertex="1" parent="1">
          <mxGeometry x="509.66999999999996" y="680" width="120" height="60" as="geometry"/>
        </mxCell>
        <mxCell id="EqqhAGQdl-XHteXpxpte-62" style="edgeStyle=orthogonalEdgeStyle;curved=1;orthogonalLoop=1;jettySize=auto;html=1;exitX=1;exitY=0.5;exitDx=0;exitDy=0;entryX=0;entryY=0.5;entryDx=0;entryDy=0;" edge="1" parent="1" source="EqqhAGQdl-XHteXpxpte-63" target="EqqhAGQdl-XHteXpxpte-74">
          <mxGeometry relative="1" as="geometry"/>
        </mxCell>
        <mxCell id="EqqhAGQdl-XHteXpxpte-63" value="填写详细信息,&lt;br&gt;调用投保接口" style="rounded=0;whiteSpace=wrap;html=1;" vertex="1" parent="1">
          <mxGeometry x="114" y="890" width="120" height="60" as="geometry"/>
        </mxCell>
        <mxCell id="EqqhAGQdl-XHteXpxpte-99" value="" style="edgeStyle=orthogonalEdgeStyle;curved=1;orthogonalLoop=1;jettySize=auto;html=1;" edge="1" parent="1" source="EqqhAGQdl-XHteXpxpte-64" target="EqqhAGQdl-XHteXpxpte-98">
          <mxGeometry relative="1" as="geometry"/>
        </mxCell>
        <mxCell id="EqqhAGQdl-XHteXpxpte-64" value="提交投保请求接口" style="rounded=0;whiteSpace=wrap;html=1;fillColor=#fff2cc;strokeColor=#d6b656;" vertex="1" parent="1">
          <mxGeometry x="514.0000000000001" y="890" width="120" height="60" as="geometry"/>
        </mxCell>
        <mxCell id="EqqhAGQdl-XHteXpxpte-98" value="支付接口" style="rounded=0;whiteSpace=wrap;html=1;fillColor=#fff2cc;strokeColor=#d6b656;" vertex="1" parent="1">
          <mxGeometry x="514.0000000000001" y="992" width="120" height="60" as="geometry"/>
        </mxCell>
        <mxCell id="EqqhAGQdl-XHteXpxpte-65" style="edgeStyle=orthogonalEdgeStyle;orthogonalLoop=1;jettySize=auto;html=1;exitX=1;exitY=0.3333333333333333;exitDx=0;exitDy=0;entryX=0;entryY=0.5;entryDx=0;entryDy=0;curved=1;exitPerimeter=0;" edge="1" parent="1" source="EqqhAGQdl-XHteXpxpte-69" target="EqqhAGQdl-XHteXpxpte-63">
          <mxGeometry relative="1" as="geometry"/>
        </mxCell>
        <mxCell id="EqqhAGQdl-XHteXpxpte-69" value="用户" style="shape=umlActor;verticalLabelPosition=bottom;labelBackgroundColor=#ffffff;verticalAlign=top;html=1;outlineConnect=0;" vertex="1" parent="1">
          <mxGeometry x="5.000000000000002" y="899.65" width="30" height="60" as="geometry"/>
        </mxCell>
        <mxCell id="EqqhAGQdl-XHteXpxpte-72" style="edgeStyle=orthogonalEdgeStyle;curved=1;orthogonalLoop=1;jettySize=auto;html=1;exitX=1;exitY=0.5;exitDx=0;exitDy=0;entryX=0;entryY=0.5;entryDx=0;entryDy=0;" edge="1" parent="1" source="EqqhAGQdl-XHteXpxpte-74" target="EqqhAGQdl-XHteXpxpte-64">
          <mxGeometry relative="1" as="geometry"/>
        </mxCell>
        <mxCell id="EqqhAGQdl-XHteXpxpte-74" value="投保报文" style="rounded=0;whiteSpace=wrap;html=1;fillColor=#fff2cc;strokeColor=#d6b656;" vertex="1" parent="1">
          <mxGeometry x="314" y="890" width="120" height="60" as="geometry"/>
        </mxCell>
        <mxCell id="EqqhAGQdl-XHteXpxpte-75" style="edgeStyle=orthogonalEdgeStyle;curved=1;orthogonalLoop=1;jettySize=auto;html=1;exitX=0.5;exitY=1;exitDx=0;exitDy=0;entryX=0.5;entryY=0;entryDx=0;entryDy=0;" edge="1" parent="1" source="EqqhAGQdl-XHteXpxpte-76" target="EqqhAGQdl-XHteXpxpte-85">
          <mxGeometry relative="1" as="geometry">
            <mxPoint x="358.8823529411766" y="1089.644117647059" as="targetPoint"/>
          </mxGeometry>
        </mxCell>
        <mxCell id="EqqhAGQdl-XHteXpxpte-76" value="中民请求回调" style="rounded=0;whiteSpace=wrap;html=1;fillColor=#d5e8d4;strokeColor=#82b366;" vertex="1" parent="1">
          <mxGeometry x="515" y="1090" width="120" height="60" as="geometry"/>
        </mxCell>
        <mxCell id="EqqhAGQdl-XHteXpxpte-81" value="下单/下单" style="edgeStyle=orthogonalEdgeStyle;curved=1;orthogonalLoop=1;jettySize=auto;html=1;exitX=0;exitY=0;exitDx=0;exitDy=0;" edge="1" parent="1" source="EqqhAGQdl-XHteXpxpte-85" target="EqqhAGQdl-XHteXpxpte-86">
          <mxGeometry relative="1" as="geometry"/>
        </mxCell>
        <mxCell id="EqqhAGQdl-XHteXpxpte-82" value="*/撤单" style="edgeStyle=orthogonalEdgeStyle;curved=1;orthogonalLoop=1;jettySize=auto;html=1;exitX=0.5;exitY=1;exitDx=0;exitDy=0;entryX=0.5;entryY=0;entryDx=0;entryDy=0;" edge="1" parent="1" source="EqqhAGQdl-XHteXpxpte-85" target="EqqhAGQdl-XHteXpxpte-88">
          <mxGeometry relative="1" as="geometry">
            <mxPoint x="102.76470588235316" y="1498.9382352941175" as="targetPoint"/>
          </mxGeometry>
        </mxCell>
        <mxCell id="EqqhAGQdl-XHteXpxpte-83" value="撤单/下单" style="edgeStyle=orthogonalEdgeStyle;curved=1;orthogonalLoop=1;jettySize=auto;html=1;exitX=1;exitY=0.5;exitDx=0;exitDy=0;" edge="1" parent="1" source="EqqhAGQdl-XHteXpxpte-85" target="EqqhAGQdl-XHteXpxpte-95">
          <mxGeometry x="-0.2391" y="-40" relative="1" as="geometry">
            <mxPoint as="offset"/>
          </mxGeometry>
        </mxCell>
        <mxCell id="EqqhAGQdl-XHteXpxpte-84" value="撤单/出单" style="edgeStyle=orthogonalEdgeStyle;curved=1;orthogonalLoop=1;jettySize=auto;html=1;exitX=1;exitY=0;exitDx=0;exitDy=0;entryX=0.5;entryY=0;entryDx=0;entryDy=0;" edge="1" parent="1" source="EqqhAGQdl-XHteXpxpte-85" target="EqqhAGQdl-XHteXpxpte-91">
          <mxGeometry x="-0.0176" y="-20" relative="1" as="geometry">
            <mxPoint as="offset"/>
          </mxGeometry>
        </mxCell>
        <mxCell id="EqqhAGQdl-XHteXpxpte-85" value="查询到的订单状态&amp;amp;系统当前订单状态" style="rhombus;whiteSpace=wrap;html=1;" vertex="1" parent="1">
          <mxGeometry x="319" y="1220" width="80" height="80" as="geometry"/>
        </mxCell>
        <mxCell id="EqqhAGQdl-XHteXpxpte-86" value="结束" style="rounded=0;whiteSpace=wrap;html=1;" vertex="1" parent="1">
          <mxGeometry x="72" y="1090" width="120" height="60" as="geometry"/>
        </mxCell>
        <mxCell id="EqqhAGQdl-XHteXpxpte-87" value="^撤单/出单" style="edgeStyle=orthogonalEdgeStyle;curved=1;orthogonalLoop=1;jettySize=auto;html=1;exitX=0;exitY=0.5;exitDx=0;exitDy=0;entryX=0.5;entryY=0;entryDx=0;entryDy=0;" edge="1" parent="1" source="EqqhAGQdl-XHteXpxpte-85" target="EqqhAGQdl-XHteXpxpte-88">
          <mxGeometry x="-0.3348" y="60" relative="1" as="geometry">
            <mxPoint x="359" y="1290" as="sourcePoint"/>
            <mxPoint x="102.76470588235316" y="1498.9382352941175" as="targetPoint"/>
            <mxPoint as="offset"/>
          </mxGeometry>
        </mxCell>
        <mxCell id="EqqhAGQdl-XHteXpxpte-88" value="结束" style="rounded=0;whiteSpace=wrap;html=1;" vertex="1" parent="1">
          <mxGeometry x="72" y="1514.35" width="120" height="60" as="geometry"/>
        </mxCell>
        <mxCell id="EqqhAGQdl-XHteXpxpte-89" value="出单/下单" style="edgeStyle=orthogonalEdgeStyle;curved=1;orthogonalLoop=1;jettySize=auto;html=1;exitX=1;exitY=1;exitDx=0;exitDy=0;entryX=0.5;entryY=0;entryDx=0;entryDy=0;" edge="1" parent="1" source="EqqhAGQdl-XHteXpxpte-85" target="EqqhAGQdl-XHteXpxpte-93">
          <mxGeometry relative="1" as="geometry">
            <mxPoint x="399" y="1250" as="sourcePoint"/>
            <mxPoint x="579" y="1270" as="targetPoint"/>
          </mxGeometry>
        </mxCell>
        <mxCell id="EqqhAGQdl-XHteXpxpte-90" style="edgeStyle=orthogonalEdgeStyle;curved=1;orthogonalLoop=1;jettySize=auto;html=1;exitX=0.5;exitY=1;exitDx=0;exitDy=0;entryX=1;entryY=0.5;entryDx=0;entryDy=0;" edge="1" parent="1" source="EqqhAGQdl-XHteXpxpte-91" target="EqqhAGQdl-XHteXpxpte-88">
          <mxGeometry relative="1" as="geometry">
            <mxPoint x="162.76470588235316" y="1528.35" as="targetPoint"/>
          </mxGeometry>
        </mxCell>
        <mxCell id="EqqhAGQdl-XHteXpxpte-91" value="出单转撤单流程" style="rounded=0;whiteSpace=wrap;html=1;fillColor=#dae8fc;strokeColor=#6c8ebf;" vertex="1" parent="1">
          <mxGeometry x="661" y="1420" width="120" height="60" as="geometry"/>
        </mxCell>
        <mxCell id="EqqhAGQdl-XHteXpxpte-92" style="edgeStyle=orthogonalEdgeStyle;curved=1;orthogonalLoop=1;jettySize=auto;html=1;exitX=0.5;exitY=1;exitDx=0;exitDy=0;entryX=1;entryY=0.5;entryDx=0;entryDy=0;" edge="1" parent="1" source="EqqhAGQdl-XHteXpxpte-93" target="EqqhAGQdl-XHteXpxpte-88">
          <mxGeometry relative="1" as="geometry">
            <mxPoint x="162.76470588235316" y="1528.35" as="targetPoint"/>
          </mxGeometry>
        </mxCell>
        <mxCell id="EqqhAGQdl-XHteXpxpte-93" value="下单转出单" style="rounded=0;whiteSpace=wrap;html=1;fillColor=#dae8fc;strokeColor=#6c8ebf;" vertex="1" parent="1">
          <mxGeometry x="319" y="1420" width="120" height="60" as="geometry"/>
        </mxCell>
        <mxCell id="EqqhAGQdl-XHteXpxpte-96" style="edgeStyle=orthogonalEdgeStyle;curved=1;orthogonalLoop=1;jettySize=auto;html=1;exitX=1;exitY=0.5;exitDx=0;exitDy=0;entryX=0;entryY=0.5;entryDx=0;entryDy=0;" edge="1" parent="1" source="EqqhAGQdl-XHteXpxpte-95" target="EqqhAGQdl-XHteXpxpte-91">
          <mxGeometry relative="1" as="geometry"/>
        </mxCell>
        <mxCell id="EqqhAGQdl-XHteXpxpte-95" value="下单转出单" style="rounded=0;whiteSpace=wrap;html=1;fillColor=#dae8fc;strokeColor=#6c8ebf;" vertex="1" parent="1">
          <mxGeometry x="500" y="1420" width="120" height="60" as="geometry"/>
        </mxCell>
        <mxCell id="EqqhAGQdl-XHteXpxpte-100" style="edgeStyle=orthogonalEdgeStyle;curved=1;orthogonalLoop=1;jettySize=auto;html=1;exitX=1;exitY=0.5;exitDx=0;exitDy=0;entryX=0;entryY=0.5;entryDx=0;entryDy=0;" edge="1" parent="1" source="EqqhAGQdl-XHteXpxpte-101" target="EqqhAGQdl-XHteXpxpte-108">
          <mxGeometry relative="1" as="geometry"/>
        </mxCell>
        <mxCell id="EqqhAGQdl-XHteXpxpte-101" value="填写详细信息,&lt;br&gt;调用投保接口" style="rounded=0;whiteSpace=wrap;html=1;" vertex="1" parent="1">
          <mxGeometry x="114" y="1709" width="120" height="60" as="geometry"/>
        </mxCell>
        <mxCell id="EqqhAGQdl-XHteXpxpte-102" value="" style="edgeStyle=orthogonalEdgeStyle;curved=1;orthogonalLoop=1;jettySize=auto;html=1;" edge="1" parent="1" source="EqqhAGQdl-XHteXpxpte-103" target="EqqhAGQdl-XHteXpxpte-104">
          <mxGeometry relative="1" as="geometry"/>
        </mxCell>
        <mxCell id="EqqhAGQdl-XHteXpxpte-103" value="提交投保请求接口" style="rounded=0;whiteSpace=wrap;html=1;fillColor=#fff2cc;strokeColor=#d6b656;" vertex="1" parent="1">
          <mxGeometry x="514.0000000000001" y="1709" width="120" height="60" as="geometry"/>
        </mxCell>
        <mxCell id="EqqhAGQdl-XHteXpxpte-104" value="支付接口" style="rounded=0;whiteSpace=wrap;html=1;fillColor=#fff2cc;strokeColor=#d6b656;" vertex="1" parent="1">
          <mxGeometry x="514.0000000000001" y="1811" width="120" height="60" as="geometry"/>
        </mxCell>
        <mxCell id="EqqhAGQdl-XHteXpxpte-105" style="edgeStyle=orthogonalEdgeStyle;orthogonalLoop=1;jettySize=auto;html=1;exitX=1;exitY=0.3333333333333333;exitDx=0;exitDy=0;entryX=0;entryY=0.5;entryDx=0;entryDy=0;curved=1;exitPerimeter=0;" edge="1" parent="1" source="EqqhAGQdl-XHteXpxpte-106" target="EqqhAGQdl-XHteXpxpte-101">
          <mxGeometry relative="1" as="geometry"/>
        </mxCell>
        <mxCell id="EqqhAGQdl-XHteXpxpte-106" value="用户" style="shape=umlActor;verticalLabelPosition=bottom;labelBackgroundColor=#ffffff;verticalAlign=top;html=1;outlineConnect=0;" vertex="1" parent="1">
          <mxGeometry x="5.000000000000002" y="1718.65" width="30" height="60" as="geometry"/>
        </mxCell>
        <mxCell id="EqqhAGQdl-XHteXpxpte-107" style="edgeStyle=orthogonalEdgeStyle;curved=1;orthogonalLoop=1;jettySize=auto;html=1;exitX=1;exitY=0.5;exitDx=0;exitDy=0;entryX=0;entryY=0.5;entryDx=0;entryDy=0;" edge="1" parent="1" source="EqqhAGQdl-XHteXpxpte-108" target="EqqhAGQdl-XHteXpxpte-103">
          <mxGeometry relative="1" as="geometry"/>
        </mxCell>
        <mxCell id="EqqhAGQdl-XHteXpxpte-108" value="投保报文" style="rounded=0;whiteSpace=wrap;html=1;fillColor=#fff2cc;strokeColor=#d6b656;" vertex="1" parent="1">
          <mxGeometry x="314" y="1709" width="120" height="60" as="geometry"/>
        </mxCell>
        <mxCell id="EqqhAGQdl-XHteXpxpte-127" style="edgeStyle=orthogonalEdgeStyle;curved=1;orthogonalLoop=1;jettySize=auto;html=1;exitX=0.5;exitY=1;exitDx=0;exitDy=0;entryX=0.5;entryY=0;entryDx=0;entryDy=0;" edge="1" parent="1" source="EqqhAGQdl-XHteXpxpte-128" target="EqqhAGQdl-XHteXpxpte-133">
          <mxGeometry relative="1" as="geometry">
            <mxPoint x="356.8823529411766" y="1894.644117647059" as="targetPoint"/>
          </mxGeometry>
        </mxCell>
        <mxCell id="EqqhAGQdl-XHteXpxpte-128" value="大象回调" style="rounded=0;whiteSpace=wrap;html=1;fillColor=#d5e8d4;strokeColor=#82b366;" vertex="1" parent="1">
          <mxGeometry x="513" y="1895" width="120" height="60" as="geometry"/>
        </mxCell>
        <mxCell id="EqqhAGQdl-XHteXpxpte-129" value="下单/下单" style="edgeStyle=orthogonalEdgeStyle;curved=1;orthogonalLoop=1;jettySize=auto;html=1;exitX=0;exitY=0;exitDx=0;exitDy=0;" edge="1" parent="1" source="EqqhAGQdl-XHteXpxpte-133" target="EqqhAGQdl-XHteXpxpte-134">
          <mxGeometry relative="1" as="geometry"/>
        </mxCell>
        <mxCell id="EqqhAGQdl-XHteXpxpte-130" value="*/撤单" style="edgeStyle=orthogonalEdgeStyle;curved=1;orthogonalLoop=1;jettySize=auto;html=1;exitX=0.5;exitY=1;exitDx=0;exitDy=0;entryX=0.5;entryY=0;entryDx=0;entryDy=0;" edge="1" parent="1" source="EqqhAGQdl-XHteXpxpte-133" target="EqqhAGQdl-XHteXpxpte-136">
          <mxGeometry relative="1" as="geometry">
            <mxPoint x="100.76470588235316" y="2303.9382352941175" as="targetPoint"/>
          </mxGeometry>
        </mxCell>
        <mxCell id="EqqhAGQdl-XHteXpxpte-131" value="撤单/下单" style="edgeStyle=orthogonalEdgeStyle;curved=1;orthogonalLoop=1;jettySize=auto;html=1;exitX=1;exitY=0.5;exitDx=0;exitDy=0;" edge="1" parent="1" source="EqqhAGQdl-XHteXpxpte-133" target="EqqhAGQdl-XHteXpxpte-143">
          <mxGeometry x="-0.2391" y="-40" relative="1" as="geometry">
            <mxPoint as="offset"/>
          </mxGeometry>
        </mxCell>
        <mxCell id="EqqhAGQdl-XHteXpxpte-132" value="撤单/出单" style="edgeStyle=orthogonalEdgeStyle;curved=1;orthogonalLoop=1;jettySize=auto;html=1;exitX=1;exitY=0;exitDx=0;exitDy=0;entryX=0.5;entryY=0;entryDx=0;entryDy=0;" edge="1" parent="1" source="EqqhAGQdl-XHteXpxpte-133" target="EqqhAGQdl-XHteXpxpte-139">
          <mxGeometry x="-0.0176" y="-20" relative="1" as="geometry">
            <mxPoint as="offset"/>
          </mxGeometry>
        </mxCell>
        <mxCell id="EqqhAGQdl-XHteXpxpte-133" value="回调订单状态&amp;amp;系统当前订单状态" style="rhombus;whiteSpace=wrap;html=1;" vertex="1" parent="1">
          <mxGeometry x="317" y="2025" width="80" height="80" as="geometry"/>
        </mxCell>
        <mxCell id="EqqhAGQdl-XHteXpxpte-134" value="结束" style="rounded=0;whiteSpace=wrap;html=1;" vertex="1" parent="1">
          <mxGeometry x="70" y="1895" width="120" height="60" as="geometry"/>
        </mxCell>
        <mxCell id="EqqhAGQdl-XHteXpxpte-135" value="^撤单/出单" style="edgeStyle=orthogonalEdgeStyle;curved=1;orthogonalLoop=1;jettySize=auto;html=1;exitX=0;exitY=0.5;exitDx=0;exitDy=0;entryX=0.5;entryY=0;entryDx=0;entryDy=0;" edge="1" parent="1" source="EqqhAGQdl-XHteXpxpte-133" target="EqqhAGQdl-XHteXpxpte-136">
          <mxGeometry x="-0.3348" y="60" relative="1" as="geometry">
            <mxPoint x="357" y="2095" as="sourcePoint"/>
            <mxPoint x="100.76470588235316" y="2303.9382352941175" as="targetPoint"/>
            <mxPoint as="offset"/>
          </mxGeometry>
        </mxCell>
        <mxCell id="EqqhAGQdl-XHteXpxpte-136" value="结束" style="rounded=0;whiteSpace=wrap;html=1;" vertex="1" parent="1">
          <mxGeometry x="70" y="2319.35" width="120" height="60" as="geometry"/>
        </mxCell>
        <mxCell id="EqqhAGQdl-XHteXpxpte-137" value="出单/下单" style="edgeStyle=orthogonalEdgeStyle;curved=1;orthogonalLoop=1;jettySize=auto;html=1;exitX=1;exitY=1;exitDx=0;exitDy=0;entryX=0.5;entryY=0;entryDx=0;entryDy=0;" edge="1" parent="1" source="EqqhAGQdl-XHteXpxpte-133" target="EqqhAGQdl-XHteXpxpte-141">
          <mxGeometry relative="1" as="geometry">
            <mxPoint x="397" y="2055" as="sourcePoint"/>
            <mxPoint x="577" y="2075" as="targetPoint"/>
          </mxGeometry>
        </mxCell>
        <mxCell id="EqqhAGQdl-XHteXpxpte-138" style="edgeStyle=orthogonalEdgeStyle;curved=1;orthogonalLoop=1;jettySize=auto;html=1;exitX=0.5;exitY=1;exitDx=0;exitDy=0;entryX=1;entryY=0.5;entryDx=0;entryDy=0;" edge="1" parent="1" source="EqqhAGQdl-XHteXpxpte-139" target="EqqhAGQdl-XHteXpxpte-136">
          <mxGeometry relative="1" as="geometry">
            <mxPoint x="160.76470588235316" y="2333.35" as="targetPoint"/>
          </mxGeometry>
        </mxCell>
        <mxCell id="EqqhAGQdl-XHteXpxpte-139" value="出单转撤单流程" style="rounded=0;whiteSpace=wrap;html=1;fillColor=#dae8fc;strokeColor=#6c8ebf;" vertex="1" parent="1">
          <mxGeometry x="659" y="2225" width="120" height="60" as="geometry"/>
        </mxCell>
        <mxCell id="EqqhAGQdl-XHteXpxpte-140" style="edgeStyle=orthogonalEdgeStyle;curved=1;orthogonalLoop=1;jettySize=auto;html=1;exitX=0.5;exitY=1;exitDx=0;exitDy=0;entryX=1;entryY=0.5;entryDx=0;entryDy=0;" edge="1" parent="1" source="EqqhAGQdl-XHteXpxpte-141" target="EqqhAGQdl-XHteXpxpte-136">
          <mxGeometry relative="1" as="geometry">
            <mxPoint x="160.76470588235316" y="2333.35" as="targetPoint"/>
          </mxGeometry>
        </mxCell>
        <mxCell id="EqqhAGQdl-XHteXpxpte-141" value="下单转出单" style="rounded=0;whiteSpace=wrap;html=1;fillColor=#dae8fc;strokeColor=#6c8ebf;" vertex="1" parent="1">
          <mxGeometry x="317" y="2225" width="120" height="60" as="geometry"/>
        </mxCell>
        <mxCell id="EqqhAGQdl-XHteXpxpte-142" style="edgeStyle=orthogonalEdgeStyle;curved=1;orthogonalLoop=1;jettySize=auto;html=1;exitX=1;exitY=0.5;exitDx=0;exitDy=0;entryX=0;entryY=0.5;entryDx=0;entryDy=0;" edge="1" parent="1" source="EqqhAGQdl-XHteXpxpte-143" target="EqqhAGQdl-XHteXpxpte-139">
          <mxGeometry relative="1" as="geometry"/>
        </mxCell>
        <mxCell id="EqqhAGQdl-XHteXpxpte-143" value="下单转出单" style="rounded=0;whiteSpace=wrap;html=1;fillColor=#dae8fc;strokeColor=#6c8ebf;" vertex="1" parent="1">
          <mxGeometry x="498" y="2225" width="120" height="60" as="geometry"/>
        </mxCell>
      </root>
    </mxGraphModel>
  </diagram>
</mxfile>
